<svg xmlns="http://www.w3.org/2000/svg" width="800" height="500" viewBox="0 0 800 500">
  <rect x="0" y="0" width="800" height="500" fill="#0f172a" />
  <text x="400" y="36" fill="#C9A96E" font-size="15" font-weight="700" text-anchor="middle" font-family="Inter, sans-serif">SYNTHÈSE STRATÉGIQUE — InPressco</text>
  <text x="400" y="56" fill="#94a3b8" font-size="12" text-anchor="middle" font-family="Inter, sans-serif">10 intentions enregistrées</text>
  <rect x="60" y="80" width="320" height="190" fill="#1e293b" rx="10" stroke="#3b82f6" stroke-width="1" />
  <text x="76" y="108" fill="#3b82f6" font-size="14" font-weight="700" font-family="Inter, sans-serif">Technique</text>
  <text x="364" y="108" fill="#f1f5f9" font-size="22" font-weight="700" text-anchor="end" font-family="Inter, sans-serif">5</text>
  <rect x="76" y="130" width="288" height="12" fill="#334155" rx="6" />
  <rect x="76" y="130" width="144" height="12" fill="#3b82f6" rx="6" />
  <text x="76" y="158" fill="#94a3b8" font-size="12" font-family="Inter, sans-serif">50% des intentions</text>
  <rect x="420" y="80" width="320" height="190" fill="#1e293b" rx="10" stroke="#22c55e" stroke-width="1" />
  <text x="436" y="108" fill="#22c55e" font-size="14" font-weight="700" font-family="Inter, sans-serif">Commercial</text>
  <text x="724" y="108" fill="#f1f5f9" font-size="22" font-weight="700" text-anchor="end" font-family="Inter, sans-serif">0</text>
  <rect x="436" y="130" width="288" height="12" fill="#334155" rx="6" />
  <text x="436" y="158" fill="#94a3b8" font-size="12" font-family="Inter, sans-serif">0% des intentions</text>
  <rect x="60" y="290" width="320" height="190" fill="#1e293b" rx="10" stroke="#f59e0b" stroke-width="1" />
  <text x="76" y="318" fill="#f59e0b" font-size="14" font-weight="700" font-family="Inter, sans-serif">Stratégique</text>
  <text x="364" y="318" fill="#f1f5f9" font-size="22" font-weight="700" text-anchor="end" font-family="Inter, sans-serif">4</text>
  <rect x="76" y="340" width="288" height="12" fill="#334155" rx="6" />
  <rect x="76" y="340" width="115" height="12" fill="#f59e0b" rx="6" />
  <text x="76" y="368" fill="#94a3b8" font-size="12" font-family="Inter, sans-serif">40% des intentions</text>
  <rect x="420" y="290" width="320" height="190" fill="#1e293b" rx="10" stroke="#a855f7" stroke-width="1" />
  <text x="436" y="318" fill="#a855f7" font-size="14" font-weight="700" font-family="Inter, sans-serif">Vision</text>
  <text x="724" y="318" fill="#f1f5f9" font-size="22" font-weight="700" text-anchor="end" font-family="Inter, sans-serif">1</text>
  <rect x="436" y="340" width="288" height="12" fill="#334155" rx="6" />
  <rect x="436" y="340" width="28" height="12" fill="#a855f7" rx="6" />
  <text x="436" y="368" fill="#94a3b8" font-size="12" font-family="Inter, sans-serif">10% des intentions</text>
  <text x="400" y="488" fill="#475569" font-size="11" text-anchor="middle" font-family="Inter, sans-serif">Généré le 2026-03-28 15:22 UTC • tools/intent_tracker.py</text>
</svg>