<?xml version="1.0" encoding="UTF-8"?>
<svg id="Calque_1" xmlns="http://www.w3.org/2000/svg" version="1.1" viewBox="0 0 707.87 652.32">
  <!-- Generator: Adobe Illustrator 29.1.0, SVG Export Plug-In . SVG Version: 2.1.0 Build 142)  -->
  <defs>
    <style>
      .st0 {
        fill: none;
        stroke: #1d1d1b;
        stroke-miterlimit: 10;
        stroke-width: .25px;
      }

      .st1 {
        font-family: FrutigerNeueLT-CnBk, 'FrutigerNeueLT CnBk';
        font-size: 10px;
      }

      .st1, .st2, .st3 {
        fill: #1d1d1b;
      }

      .st3 {
        font-family: MuseoSans-100, 'Museo Sans';
        font-size: 15.64px;
        letter-spacing: .6em;
      }
    </style>
  </defs>
  <path class="st2" d="M587.27,144.07c-8.59,0-15.56,6.97-15.56,15.56s6.97,15.56,15.56,15.56,15.56-6.97,15.56-15.56-6.97-15.56-15.56-15.56M591.58,161.45c-.63.21-1.28.3-2.18.3h-2.98v3.99h1.86v1.63h-5.59v-1.63h1.86v-4.03h-1.86v-1.63h6.58c.68,0,1.2-.08,1.63-.26.98-.4,1.54-1.35,1.54-2.62,0-1.18-.47-2.05-1.35-2.51-.47-.21-1.1-.32-1.82-.32h-6.57v-1.66s6.7,0,6.7,0c1.12,0,1.92.13,2.52.42,1.51.68,2.42,2.2,2.42,4.07,0,2.02-1.05,3.65-2.74,4.26M584.31,157.24c0-.65.52-1.17,1.17-1.17s1.17.52,1.17,1.17-.52,1.17-1.17,1.17-1.17-.52-1.17-1.17"/>
  <polygon class="st2" points="123.05 183.2 128.54 183.2 128.54 206.32 123.05 206.32 123.05 209.78 138.21 209.78 138.21 206.32 132.72 206.32 132.72 183.2 132.72 179.74 123.05 179.74 123.05 183.2"/>
  <g>
    <path class="st2" d="M185.26,171.27h5.55v29.32c-.05,1.13.18,2.93.18,2.93h-.12s-.66-1.61-1.25-2.57l-23.52-33.14h-9.55v3.46h5.49v35.05h-5.49v3.47h15.22v-3.47h-5.55v-29.37c.06-1.08-.18-2.87-.18-2.87h.12s.66,1.62,1.26,2.57l23.53,33.14h4.06v-38.51h5.49v-3.46h-15.22v3.46Z"/>
    <path class="st2" d="M227.82,189.59h-4.17v16.73h-5.49v3.47h15.16v-3.47h-5.49v-13.13h9.49c2.27,0,4.24-.18,6.21-.84,4.65-1.67,7.64-6.15,7.64-11.94,0-5.37-2.63-9.56-6.75-11.41-1.97-.95-4.6-1.19-7.17-1.19h-19.11v3.58h18.76c2.21,0,4.18.36,5.67,1.02,2.74,1.44,4.36,4.18,4.36,8,0,4.12-1.85,7.1-4.95,8.36-1.44.59-3.11.84-5.08.84h-9.08"/>
    <path class="st2" d="M299.72,204.95l-6.98-11.95c-.66-1.19-1.44-1.73-1.44-1.73v-.12c5.73-1.01,9.32-5.61,9.32-11.88,0-5.55-2.7-9.02-6.81-10.51-2.33-.78-4.6-.95-7.47-.95h-17.97v3.46h5.5v35.05h-5.5v3.46h15.11v-3.46h-5.43v-14.33h6.03c2.74,0,3.58.54,4.72,2.57l7.04,12.06c1.49,2.63,2.15,3.16,5.79,3.16h2.27v-3.46h-1.2c-1.55,0-2.33-.18-2.99-1.37M287.9,188.41h-9.86v-17.02h8.18c2.15,0,4.12.24,5.56.78,2.92,1.13,4.59,3.58,4.59,7.41,0,5.37-3.4,8.83-8.48,8.83"/>
  </g>
  <polygon class="st2" points="320.91 167.81 320.91 171.27 326.4 171.27 326.4 206.32 320.91 206.32 320.91 209.78 351.66 209.78 351.66 200.77 347.9 200.77 347.9 206.2 330.58 206.2 330.58 190.44 346.47 190.44 346.47 186.86 330.58 186.86 330.58 171.39 346.76 171.39 346.76 176.53 350.59 176.53 350.59 167.81 320.91 167.81"/>
  <g>
    <path class="st2" d="M385.21,186.38c-5.07-1.97-9.61-3.58-9.61-8.66,0-4.48,3.7-6.81,8.48-6.81,3.77,0,8.13,1.43,8.13,4.12v3.1h4v-4.48c0-4.24-6.15-6.57-12.12-6.57-6.87,0-12.78,3.58-12.78,10.93s5.74,9.55,11.23,11.64c5.43,2.03,10.51,3.94,10.51,9.43,0,4.9-3.94,7.58-9.38,7.58-4.83,0-9.19-2.03-9.19-5.55v-3.05h-4v4c0,5.73,7.17,8.42,13.19,8.42,7.76,0,13.68-4.42,13.68-11.82s-6.03-10.03-12.12-12.3"/>
    <path class="st2" d="M430.89,186.38c-5.08-1.97-9.61-3.58-9.61-8.66,0-4.48,3.7-6.81,8.48-6.81,3.76,0,8.12,1.43,8.12,4.12v3.1h4v-4.48c0-4.24-6.15-6.57-12.12-6.57-6.87,0-12.78,3.58-12.78,10.93s5.73,9.55,11.22,11.64c5.43,2.03,10.51,3.94,10.51,9.43,0,4.9-3.94,7.58-9.38,7.58-4.83,0-9.19-2.03-9.19-5.55v-3.05h-4v4c0,5.73,7.17,8.42,13.19,8.42,7.77,0,13.67-4.42,13.67-11.82s-6.03-10.03-12.12-12.3"/>
    <path class="st2" d="M495.08,201.01c0,4.42-8.48,5.73-11.89,5.73-9.97,0-17.31-7.88-17.31-18.33s7.35-17.56,17.08-17.56c4.3,0,11.46,1.61,11.46,5.74v3.34h4v-4.48c0-6.45-10.56-8.36-15.64-8.36-12,0-21.25,9.19-21.25,21.44s9.01,21.97,21.55,21.97c5.79,0,16-2.21,16-8.3v-4.47h-4v3.28Z"/>
    <path class="st2" d="M539.07,167.09c-11.88,0-21.38,9.38-21.38,21.44s9.49,21.97,21.38,21.97,21.43-9.67,21.43-21.97-9.49-21.44-21.43-21.44M539.07,206.68c-9.38,0-17.02-7.88-17.02-18.15s7.64-17.62,17.02-17.62,17.07,7.58,17.07,17.62-7.64,18.15-17.07,18.15"/>
    <path class="st2" d="M127.57,170.64c0-1.54,1.25-2.78,2.78-2.78s2.78,1.25,2.78,2.78-1.24,2.78-2.78,2.78-2.78-1.24-2.78-2.78"/>
  </g>
  <text class="st3" transform="translate(124.32 237.67)"><tspan x="0" y="0">IMPRIMERIE EXPÉRIENTIELLE</tspan></text>
  <text class="st1" transform="translate(451.2 282.1)"><tspan x="0" y="0">FONT DYNAMIQUE BRUTE</tspan></text>
  <line class="st0" x1="559.17" y1="268.71" x2="126.41" y2="268.71"/>
  <path class="st2" d="M587.27,366.04c-8.59,0-15.56,6.97-15.56,15.56s6.97,15.56,15.56,15.56,15.56-6.97,15.56-15.56-6.97-15.56-15.56-15.56M591.58,383.43c-.63.21-1.28.3-2.18.3h-2.98v3.99h1.86v1.63h-5.59v-1.63h1.86v-4.03h-1.86v-1.63h6.58c.68,0,1.2-.08,1.63-.26.98-.4,1.54-1.35,1.54-2.62,0-1.18-.47-2.05-1.35-2.51-.47-.21-1.1-.32-1.82-.32h-6.57v-1.66s6.7,0,6.7,0c1.12,0,1.92.13,2.52.42,1.51.68,2.42,2.2,2.42,4.07,0,2.02-1.05,3.65-2.74,4.26M584.31,379.21c0-.65.52-1.17,1.17-1.17s1.17.52,1.17,1.17-.52,1.17-1.17,1.17-1.17-.52-1.17-1.17"/>
  <polygon class="st2" points="123.05 405.17 128.54 405.17 128.54 428.29 123.05 428.29 123.05 431.75 138.21 431.75 138.21 428.29 132.72 428.29 132.72 405.17 132.72 401.71 123.05 401.71 123.05 405.17"/>
  <g>
    <path class="st2" d="M185.26,393.24h5.55v29.32c-.05,1.13.18,2.93.18,2.93h-.12s-.66-1.61-1.25-2.57l-23.52-33.14h-9.55v3.46h5.49v35.05h-5.49v3.47h15.22v-3.47h-5.55v-29.37c.06-1.08-.18-2.87-.18-2.87h.12s.66,1.62,1.26,2.57l23.53,33.14h4.06v-38.51h5.49v-3.46h-15.22v3.46Z"/>
    <path class="st2" d="M227.82,411.56h-4.17v16.73h-5.49v3.47h15.16v-3.47h-5.49v-13.13h9.49c2.27,0,4.24-.18,6.21-.84,4.65-1.67,7.64-6.15,7.64-11.94,0-5.37-2.63-9.56-6.75-11.41-1.97-.95-4.6-1.19-7.17-1.19h-19.11v3.58h18.76c2.21,0,4.18.36,5.67,1.02,2.74,1.44,4.36,4.18,4.36,8,0,4.12-1.85,7.1-4.95,8.36-1.44.59-3.11.84-5.08.84h-9.08"/>
    <path class="st2" d="M299.72,426.92l-6.98-11.95c-.66-1.19-1.44-1.73-1.44-1.73v-.12c5.73-1.01,9.32-5.61,9.32-11.88,0-5.55-2.7-9.02-6.81-10.51-2.33-.78-4.6-.95-7.47-.95h-17.97v3.46h5.5v35.05h-5.5v3.46h15.11v-3.46h-5.43v-14.33h6.03c2.74,0,3.58.54,4.72,2.57l7.04,12.06c1.49,2.63,2.15,3.16,5.79,3.16h2.27v-3.46h-1.2c-1.55,0-2.33-.18-2.99-1.37M287.9,410.38h-9.86v-17.02h8.18c2.15,0,4.12.24,5.56.78,2.92,1.13,4.59,3.58,4.59,7.41,0,5.37-3.4,8.83-8.48,8.83"/>
  </g>
  <polygon class="st2" points="320.91 389.78 320.91 393.24 326.4 393.24 326.4 428.29 320.91 428.29 320.91 431.76 351.66 431.76 351.66 422.74 347.9 422.74 347.9 428.17 330.58 428.17 330.58 412.41 346.47 412.41 346.47 408.83 330.58 408.83 330.58 393.36 346.76 393.36 346.76 398.5 350.59 398.5 350.59 389.78 320.91 389.78"/>
  <g>
    <path class="st2" d="M385.21,408.35c-5.07-1.97-9.61-3.58-9.61-8.66,0-4.48,3.7-6.81,8.48-6.81,3.77,0,8.13,1.43,8.13,4.12v3.1h4v-4.48c0-4.24-6.15-6.57-12.12-6.57-6.87,0-12.78,3.58-12.78,10.93s5.74,9.55,11.23,11.64c5.43,2.03,10.51,3.94,10.51,9.43,0,4.9-3.94,7.58-9.38,7.58-4.83,0-9.19-2.03-9.19-5.55v-3.05h-4v4c0,5.73,7.17,8.42,13.19,8.42,7.76,0,13.68-4.42,13.68-11.82s-6.03-10.03-12.12-12.3"/>
    <path class="st2" d="M430.89,408.35c-5.08-1.97-9.61-3.58-9.61-8.66,0-4.48,3.7-6.81,8.48-6.81,3.76,0,8.12,1.43,8.12,4.12v3.1h4v-4.48c0-4.24-6.15-6.57-12.12-6.57-6.87,0-12.78,3.58-12.78,10.93s5.73,9.55,11.22,11.64c5.43,2.03,10.51,3.94,10.51,9.43,0,4.9-3.94,7.58-9.38,7.58-4.83,0-9.19-2.03-9.19-5.55v-3.05h-4v4c0,5.73,7.17,8.42,13.19,8.42,7.77,0,13.67-4.42,13.67-11.82s-6.03-10.03-12.12-12.3"/>
    <path class="st2" d="M495.08,422.98c0,4.42-8.48,5.73-11.89,5.73-9.97,0-17.31-7.88-17.31-18.33s7.35-17.56,17.08-17.56c4.3,0,11.46,1.61,11.46,5.74v3.34h4v-4.48c0-6.45-10.56-8.36-15.64-8.36-12,0-21.25,9.19-21.25,21.44s9.01,21.97,21.55,21.97c5.79,0,16-2.21,16-8.3v-4.47h-4v3.28Z"/>
    <path class="st2" d="M539.07,389.06c-11.88,0-21.38,9.38-21.38,21.44s9.49,21.97,21.38,21.97,21.43-9.67,21.43-21.97-9.49-21.44-21.43-21.44M539.07,428.65c-9.38,0-17.02-7.88-17.02-18.15s7.64-17.62,17.02-17.62,17.07,7.58,17.07,17.62-7.64,18.15-17.07,18.15"/>
    <path class="st2" d="M127.57,392.61c0-1.54,1.25-2.78,2.78-2.78s2.78,1.25,2.78,2.78-1.24,2.78-2.78,2.78-2.78-1.24-2.78-2.78"/>
  </g>
  <g>
    <path class="st2" d="M126.01,448.7h.67v10.95h-.67v-10.95Z"/>
    <path class="st2" d="M140.01,448.7h.66l3.19,6.88c.25.53.53,1.24.53,1.24h.03s.28-.7.53-1.24l3.19-6.88h.66l.88,10.95h-.67l-.67-8.35c-.05-.53-.05-1.45-.05-1.45h-.03s-.31.92-.56,1.45l-2.94,6.24h-.69l-2.92-6.24c-.23-.52-.58-1.49-.58-1.49h-.03s0,.95-.05,1.49l-.67,8.35h-.67l.88-10.95Z"/>
    <path class="st2" d="M162.13,448.7h3.6c1.91,0,3.33,1.2,3.33,3.19s-1.42,3.22-3.33,3.22h-2.92v4.54h-.67v-10.95ZM165.7,454.49c1.6,0,2.66-.95,2.66-2.6s-1.06-2.56-2.66-2.56h-2.89v5.16h2.89Z"/>
    <path class="st2" d="M180.78,448.7h3.21c1.02,0,1.53.11,1.97.33.91.45,1.52,1.38,1.52,2.63,0,1.56-.91,2.74-2.19,3.02v.03s.11.12.25.39l2.46,4.55h-.8l-2.6-4.85h-3.14v4.85h-.67v-10.95ZM184.42,454.17c1.44,0,2.35-1.03,2.35-2.52,0-.97-.48-1.75-1.28-2.11-.31-.14-.66-.22-1.53-.22h-2.5v4.85h2.97Z"/>
    <path class="st2" d="M199.88,448.7h.67v10.95h-.67v-10.95Z"/>
    <path class="st2" d="M213.88,448.7h.66l3.19,6.88c.25.53.53,1.24.53,1.24h.03s.28-.7.53-1.24l3.19-6.88h.66l.88,10.95h-.67l-.67-8.35c-.05-.53-.05-1.45-.05-1.45h-.03s-.31.92-.56,1.45l-2.94,6.24h-.69l-2.92-6.24c-.23-.52-.58-1.49-.58-1.49h-.03s0,.95-.05,1.49l-.67,8.35h-.67l.88-10.95Z"/>
    <path class="st2" d="M235.99,448.7h5.99v.63h-5.32v4.49h4.36v.63h-4.36v4.58h5.61v.63h-6.29v-10.95Z"/>
    <path class="st2" d="M254.31,448.7h3.21c1.02,0,1.53.11,1.97.33.91.45,1.52,1.38,1.52,2.63,0,1.56-.91,2.74-2.19,3.02v.03s.11.12.25.39l2.46,4.55h-.8l-2.6-4.85h-3.14v4.85h-.67v-10.95ZM257.96,454.17c1.44,0,2.35-1.03,2.35-2.52,0-.97-.48-1.75-1.28-2.11-.31-.14-.66-.22-1.53-.22h-2.5v4.85h2.97Z"/>
    <path class="st2" d="M273.41,448.7h.67v10.95h-.67v-10.95Z"/>
    <path class="st2" d="M286.85,448.7h5.99v.63h-5.32v4.49h4.36v.63h-4.36v4.58h5.61v.63h-6.29v-10.95Z"/>
    <path class="st2" d="M318.88,448.7h5.99v.63h-5.32v4.49h4.36v.63h-4.36v4.58h5.61v.63h-6.29v-10.95Z"/>
    <path class="st2" d="M339.52,453.86l-3.14-5.16h.81l2.1,3.49c.31.53.72,1.22.72,1.22h.03s.34-.69.67-1.22l2.11-3.49h.81l-3.17,5.16,3.55,5.79h-.8l-2.53-4.16c-.33-.55-.7-1.17-.7-1.17h-.03s-.33.64-.66,1.19l-2.5,4.14h-.8l3.53-5.79Z"/>
    <path class="st2" d="M355.55,448.7h3.6c1.91,0,3.33,1.2,3.33,3.19s-1.42,3.22-3.33,3.22h-2.92v4.54h-.67v-10.95ZM359.12,454.49c1.6,0,2.66-.95,2.66-2.6s-1.06-2.56-2.66-2.56h-2.89v5.16h2.89Z"/>
    <path class="st2" d="M374.2,448.7h5.99v.63h-5.32v4.49h4.36v.63h-4.36v4.58h5.62v.63h-6.29v-10.95ZM378.07,446.18h.88l-1.24,1.74h-.69l1.05-1.74Z"/>
    <path class="st2" d="M392.51,448.7h3.21c1.02,0,1.53.11,1.97.33.91.45,1.52,1.38,1.52,2.63,0,1.56-.91,2.74-2.19,3.02v.03s.11.12.25.39l2.46,4.55h-.8l-2.6-4.85h-3.14v4.85h-.67v-10.95ZM396.16,454.17c1.44,0,2.35-1.03,2.35-2.52,0-.97-.49-1.75-1.28-2.11-.31-.14-.66-.22-1.53-.22h-2.5v4.85h2.97Z"/>
    <path class="st2" d="M411.61,448.7h.67v10.95h-.67v-10.95Z"/>
    <path class="st2" d="M425.05,448.7h5.99v.63h-5.32v4.49h4.36v.63h-4.36v4.58h5.62v.63h-6.29v-10.95Z"/>
    <path class="st2" d="M443.37,448.7h.62l6.24,8.59c.36.5.89,1.38.89,1.38h.03s-.08-.83-.08-1.38v-8.59h.67v10.95h-.63l-6.24-8.59c-.36-.5-.89-1.38-.89-1.38h-.03s.08.83.08,1.38v8.59h-.67v-10.95Z"/>
    <path class="st2" d="M467.03,449.32h-4.08v-.63h8.84v.63h-4.08v10.32h-.67v-10.32Z"/>
    <path class="st2" d="M482.99,448.7h.67v10.95h-.67v-10.95Z"/>
    <path class="st2" d="M496.42,448.7h5.99v.63h-5.32v4.49h4.36v.63h-4.36v4.58h5.62v.63h-6.29v-10.95Z"/>
    <path class="st2" d="M514.74,448.7h.67v10.32h5.22v.63h-5.9v-10.95Z"/>
    <path class="st2" d="M532.09,448.7h.67v10.32h5.22v.63h-5.9v-10.95Z"/>
    <path class="st2" d="M549.44,448.7h5.99v.63h-5.32v4.49h4.36v.63h-4.36v4.58h5.62v.63h-6.29v-10.95Z"/>
  </g>
  <text class="st1" transform="translate(298.66 504.07)"><tspan x="0" y="0">FONT VECTORISÉE RENDU À L’ÉCRAN LÉGÈREMENT PLUS GRAS</tspan></text>
  <line class="st0" x1="559.17" y1="490.68" x2="126.41" y2="490.68"/>
</svg>